<svg xmlns="http://www.w3.org/2000/svg">
  <g>
    <rect x="687" width="120" y="22" height="22" stroke-width="1.0" stroke="red" fill="none"/>
    <text x="687" y="44" font-size="19.8" stroke="blue" font-family="serif" on-click="">Isomerase</text>
  </g>
  <g>
    <rect x="815" width="31" y="15" height="28" stroke-width="1.0" stroke="red" fill="none"/>
    <text x="815" y="43" font-size="25.2" stroke="blue" font-family="serif">(?)</text>
  </g>
  <g title="isopentenyl diphosphate">
    <rect x="335" width="292" y="50" height="32" stroke-width="2.0" stroke="green" fill="none"/>
	<title href="https://en.wikipedia.org/wiki/Isopentenyl_pyrophosphate#/media/File:Isopentenyl-pyrophosphate-3D-balls.png">isopentenyl diphosphate</title>
  <g>
    <rect x="336" width="138" y="52" height="28" stroke-width="1.0" stroke="red" fill="none"/>
    <text x="336" y="80" font-size="25.2" stroke="blue" font-family="serif">Isopentenyl</text>
  </g>
  <g>
    <rect x="482" width="144" y="50" height="29" stroke-width="1.0" stroke="red" fill="none"/>
    <text x="482" y="79" font-size="26.1" stroke="blue" font-family="serif">diphosphate</text>
  </g>
  </g>
  <g>
    <rect x="650" width="44" y="29" height="43" stroke-width="1.0" stroke="red" fill="none"/>
    <text x="650" y="72" font-size="38.7" stroke="blue" font-family="serif">~</text>
  </g>
  <g>
    <rect x="662" width="206" y="63" height="24" stroke-width="1.0" stroke="red" fill="none"/>
    <text x="662" y="87" font-size="21.6" stroke="blue" font-family="serif">_______»</text>
  </g>
  <g>
    <rect x="898" width="165" y="47" height="29" stroke-width="1.0" stroke="red" fill="none"/>
    <text x="898" y="76" font-size="26.1" stroke="blue" font-family="serif">Dimethylallyl</text>
  </g>
  <g>
    <rect x="1072" width="145" y="48" height="28" stroke-width="1.0" stroke="red" fill="none"/>
    <text x="1072" y="76" font-size="25.2" stroke="blue" font-family="serif">diphosphate</text>
  </g>
  <g>
    <rect x="195" width="148" y="329" height="28" stroke-width="1.0" stroke="red" fill="none"/>
    <text x="195" y="357" font-size="25.2" stroke="blue" font-family="serif">Phytosterols</text>
  </g>
  <g>
    <rect x="197" width="162" y="501" height="28" stroke-width="1.0" stroke="red" fill="none"/>
    <text x="197" y="529" font-size="25.2" stroke="blue" font-family="serif">Triterpenoids</text>
  </g>
  <g>
    <rect x="198" width="109" y="605" height="28" stroke-width="1.0" stroke="red" fill="none"/>
    <text x="198" y="633" font-size="25.2" stroke="blue" font-family="serif">Squalene</text>
  </g>
  <g>
    <rect x="334" width="114" y="616" height="21" stroke-width="1.0" stroke="red" fill="none"/>
    <text x="334" y="637" font-size="18.900000000000002" stroke="blue" font-family="serif">&lt;———</text>
  </g>
  <g>
    <rect x="455" width="102" y="605" height="27" stroke-width="1.0" stroke="red" fill="none"/>
    <text x="455" y="632" font-size="24.3" stroke="blue" font-family="serif">Farnasy]</text>
  </g>
  <g>
    <rect x="565" width="144" y="603" height="28" stroke-width="1.0" stroke="red" fill="none"/>
    <text x="565" y="631" font-size="25.2" stroke="blue" font-family="serif">diphosphate</text>
  </g>
  <g>
    <rect x="715" width="319" y="600" height="29" stroke-width="1.0" stroke="red" fill="none"/>
    <text x="715" y="629" font-size="26.1" stroke="blue" font-family="serif">——Sesquiterpenes—"</text>
  </g>
  <g>
    <rect x="201" width="109" y="778" height="28" stroke-width="1.0" stroke="red" fill="none"/>
    <text x="201" y="806" font-size="25.2" stroke="blue" font-family="serif">Saponins</text>
  </g>
  <g>
    <rect x="394" width="566" y="219" height="13" stroke-width="1.0" stroke="red" fill="none"/>
    <text x="394" y="232" font-size="11.700000000000001" stroke="blue" font-family="serif"> </text>
  </g>
  <g>
    <rect x="379" width="36" y="577" height="21" stroke-width="1.0" stroke="red" fill="none"/>
    <text x="379" y="598" font-size="18.900000000000002" stroke="blue" font-family="serif">2X</text>
  </g>
  <g>
    <rect x="440" width="60" y="86" height="28" stroke-width="1.0" stroke="red" fill="none"/>
    <text x="440" y="114" font-size="25.2" stroke="blue" font-family="serif">(IPP;</text>
  </g>
  <g>
    <rect x="509" width="39" y="86" height="28" stroke-width="1.0" stroke="red" fill="none"/>
    <text x="509" y="114" font-size="25.2" stroke="blue" font-family="serif">Cs)</text>
  </g>
  <g>
    <rect x="1000" width="119" y="83" height="28" stroke-width="1.0" stroke="red" fill="none"/>
    <text x="1000" y="111" font-size="25.2" stroke="blue" font-family="serif">(DMAPP;</text>
  </g>
  <g>
    <rect x="1128" width="38" y="84" height="27" stroke-width="1.0" stroke="red" fill="none"/>
    <text x="1128" y="111" font-size="24.3" stroke="blue" font-family="serif">Cs)</text>
  </g>
  <g>
    <rect x="1079" width="166" y="152" height="28" stroke-width="1.0" stroke="red" fill="none"/>
    <text x="1079" y="180" font-size="25.2" stroke="blue" font-family="serif">Hemiterpenes</text>
  </g>
  <g>
    <rect x="457" width="109" y="197" height="21" stroke-width="1.0" stroke="red" fill="none"/>
    <text x="457" y="218" font-size="18.900000000000002" stroke="blue" font-family="serif">Head-tajl</text>
  </g>
  <g>
    <rect x="576" width="155" y="197" height="20" stroke-width="1.0" stroke="red" fill="none"/>
    <text x="576" y="217" font-size="18.0" stroke="blue" font-family="serif">condensation</text>
  </g>
  <g>
    <rect x="1087" width="134" y="186" height="28" stroke-width="1.0" stroke="red" fill="none"/>
    <text x="1087" y="214" font-size="25.2" stroke="blue" font-family="serif">(Isoprenes)</text>
  </g>
  <g>
    <rect x="571" width="53" y="265" height="22" stroke-width="1.0" stroke="red" fill="none"/>
    <text x="571" y="287" font-size="19.8" stroke="blue" font-family="serif">GPP</text>
  </g>
  <g>
    <rect x="633" width="102" y="258" height="28" stroke-width="1.0" stroke="red" fill="none"/>
    <text x="633" y="286" font-size="25.2" stroke="blue" font-family="serif">synthase</text>
  </g>
  <g>
    <rect x="994" width="20" y="212" height="46" stroke-width="1.0" stroke="red" fill="none"/>
    <text x="994" y="258" font-size="41.4" stroke="blue" font-family="serif">y</text>
  </g>
  <g>
    <rect x="863" width="127" y="291" height="28" stroke-width="1.0" stroke="red" fill="none"/>
    <text x="863" y="319" font-size="25.2" stroke="blue" font-family="serif">Prenylated</text>
  </g>
  <g>
    <rect x="998" width="138" y="295" height="23" stroke-width="1.0" stroke="red" fill="none"/>
    <text x="998" y="318" font-size="20.7" stroke="blue" font-family="serif">metabolites</text>
  </g>
  <g>
    <rect x="855" width="40" y="340" height="21" stroke-width="1.0" stroke="red" fill="none"/>
    <text x="855" y="361" font-size="18.900000000000002" stroke="blue" font-family="serif">e.g.</text>
  </g>
  <g>
    <rect x="905" width="137" y="325" height="28" stroke-width="1.0" stroke="red" fill="none"/>
    <text x="905" y="353" font-size="25.2" stroke="blue" font-family="serif">Cytokinins,</text>
  </g>
  <g>
    <rect x="1051" width="192" y="324" height="28" stroke-width="1.0" stroke="red" fill="none"/>
    <text x="1051" y="352" font-size="25.2" stroke="blue" font-family="serif">Anthraquinones</text>
  </g>
  <g>
    <rect x="547" width="20" y="372" height="24" stroke-width="1.0" stroke="red" fill="none"/>
    <text x="547" y="396" font-size="21.6" stroke="blue" font-family="serif">Vv</text>
  </g>
  <g>
    <rect x="446" width="95" y="398" height="27" stroke-width="1.0" stroke="red" fill="none"/>
    <text x="446" y="425" font-size="24.3" stroke="blue" font-family="serif">Geranyl</text>
  </g>
  <g>
    <rect x="549" width="256" y="396" height="28" stroke-width="1.0" stroke="red" fill="none"/>
    <text x="549" y="424" font-size="25.2" stroke="blue" font-family="serif">diphosphate»</text>
  </g>
  <g>
    <rect x="813" width="215" y="396" height="27" stroke-width="1.0" stroke="red" fill="none"/>
    <text x="813" y="423" font-size="24.3" stroke="blue" font-family="serif">Monoterpenes__,</text>
  </g>
  <g>
    <rect x="506" width="72" y="431" height="28" stroke-width="1.0" stroke="red" fill="none"/>
    <text x="506" y="459" font-size="25.2" stroke="blue" font-family="serif">(GPP;</text>
  </g>
  <g>
    <rect x="587" width="48" y="432" height="27" stroke-width="1.0" stroke="red" fill="none"/>
    <text x="587" y="459" font-size="24.3" stroke="blue" font-family="serif">Cio)</text>
  </g>
  <g>
    <rect x="571" width="47" y="506" height="22" stroke-width="1.0" stroke="red" fill="none"/>
    <text x="571" y="528" font-size="19.8" stroke="blue" font-family="serif">FPP</text>
  </g>
  <g>
    <rect x="628" width="103" y="499" height="28" stroke-width="1.0" stroke="red" fill="none"/>
    <text x="628" y="527" font-size="25.2" stroke="blue" font-family="serif">synthase</text>
  </g>
  <g>
    <rect x="1032" width="44" y="512" height="20" stroke-width="1.0" stroke="red" fill="none"/>
    <text x="1032" y="532" font-size="18.0" stroke="blue" font-family="serif">|-»</text>
  </g>
  <g>
    <rect x="1084" width="108" y="501" height="23" stroke-width="1.0" stroke="red" fill="none"/>
    <text x="1084" y="524" font-size="20.7" stroke="blue" font-family="serif">Essential</text>
  </g>
  <g>
    <rect x="1200" width="38" y="500" height="23" stroke-width="1.0" stroke="red" fill="none"/>
    <text x="1200" y="523" font-size="20.7" stroke="blue" font-family="serif">Oil</text>
  </g>
  <g>
    <rect x="574" width="26" y="535" height="27" stroke-width="1.0" stroke="red" fill="none"/>
    <text x="574" y="562" font-size="24.3" stroke="blue" font-family="serif">(+</text>
  </g>
  <g>
    <rect x="609" width="51" y="535" height="27" stroke-width="1.0" stroke="red" fill="none"/>
    <text x="609" y="562" font-size="24.3" stroke="blue" font-family="serif">IPP)</text>
  </g>
  <g>
    <rect x="1027" width="7" y="235" height="205" stroke-width="1.0" stroke="red" fill="none"/>
    <text x="1027" y="440" font-size="184.5" stroke="blue" font-family="serif"> </text>
  </g>
  <g>
    <rect x="516" width="67" y="638" height="28" stroke-width="1.0" stroke="red" fill="none"/>
    <text x="516" y="666" font-size="25.2" stroke="blue" font-family="serif">(FPP;</text>
  </g>
  <g>
    <rect x="591" width="49" y="639" height="27" stroke-width="1.0" stroke="red" fill="none"/>
    <text x="591" y="666" font-size="24.3" stroke="blue" font-family="serif">Cis)</text>
  </g>
  <g>
    <rect x="807" width="148" y="636" height="28" stroke-width="1.0" stroke="red" fill="none"/>
    <text x="807" y="664" font-size="25.2" stroke="blue" font-family="serif">Ubiquinone,</text>
  </g>
  <g>
    <rect x="963" width="176" y="635" height="28" stroke-width="1.0" stroke="red" fill="none"/>
    <text x="963" y="663" font-size="25.2" stroke="blue" font-family="serif">Plastoquinone,</text>
  </g>
  <g>
    <rect x="809" width="101" y="676" height="23" stroke-width="1.0" stroke="red" fill="none"/>
    <text x="809" y="699" font-size="20.7" stroke="blue" font-family="serif">Abscisic</text>
  </g>
  <g>
    <rect x="919" width="57" y="673" height="26" stroke-width="1.0" stroke="red" fill="none"/>
    <text x="919" y="699" font-size="23.400000000000002" stroke="blue" font-family="serif">acid,</text>
  </g>
  <g>
    <rect x="984" width="128" y="670" height="28" stroke-width="1.0" stroke="red" fill="none"/>
    <text x="984" y="698" font-size="25.2" stroke="blue" font-family="serif">Prenylated</text>
  </g>
  <g>
    <rect x="1120" width="96" y="668" height="29" stroke-width="1.0" stroke="red" fill="none"/>
    <text x="1120" y="697" font-size="26.1" stroke="blue" font-family="serif">proteins</text>
  </g>
  <g>
    <rect x="577" width="75" y="714" height="22" stroke-width="1.0" stroke="red" fill="none"/>
    <text x="577" y="736" font-size="19.8" stroke="blue" font-family="serif">GGPP</text>
  </g>
  <g>
    <rect x="661" width="102" y="707" height="28" stroke-width="1.0" stroke="red" fill="none"/>
    <text x="661" y="735" font-size="25.2" stroke="blue" font-family="serif">synthase</text>
  </g>
  <g>
    <rect x="578" width="26" y="742" height="28" stroke-width="1.0" stroke="red" fill="none"/>
    <text x="578" y="770" font-size="25.2" stroke="blue" font-family="serif">(+</text>
  </g>
  <g>
    <rect x="612" width="52" y="742" height="28" stroke-width="1.0" stroke="red" fill="none"/>
    <text x="612" y="770" font-size="25.2" stroke="blue" font-family="serif">IPP)</text>
  </g>
  <g>
    <rect x="553" width="12" y="-391" height="616" stroke-width="1.0" stroke="red" fill="none"/>
    <text x="553" y="225" font-size="554.4" stroke="blue" font-family="serif"> </text>
  </g>
  <g>
    <rect x="553" width="20" y="769" height="46" stroke-width="1.0" stroke="red" fill="none"/>
    <text x="553" y="815" font-size="41.4" stroke="blue" font-family="serif">v</text>
  </g>
  <g>
    <rect x="422" width="185" y="881" height="28" stroke-width="1.0" stroke="red" fill="none"/>
    <text x="422" y="909" font-size="25.2" stroke="blue" font-family="serif">Geranylgeranyl</text>
  </g>
  <g>
    <rect x="616" width="264" y="876" height="30" stroke-width="1.0" stroke="red" fill="none"/>
    <text x="616" y="906" font-size="27.0" stroke="blue" font-family="serif">diphosphate»</text>
  </g>
  <g>
    <rect x="887" width="129" y="880" height="27" stroke-width="1.0" stroke="red" fill="none"/>
    <text x="887" y="907" font-size="24.3" stroke="blue" font-family="serif">Diterpenes</text>
  </g>
  <g>
    <rect x="513" width="93" y="917" height="27" stroke-width="1.0" stroke="red" fill="none"/>
    <text x="513" y="944" font-size="24.3" stroke="blue" font-family="serif">(GGPP;</text>
  </g>
  <g>
    <rect x="615" width="48" y="916" height="27" stroke-width="1.0" stroke="red" fill="none"/>
    <text x="615" y="943" font-size="24.3" stroke="blue" font-family="serif">C20)</text>
  </g>
  <g>
    <rect x="888" width="154" y="913" height="27" stroke-width="1.0" stroke="red" fill="none"/>
    <text x="888" y="940" font-size="24.3" stroke="blue" font-family="serif">Gibberellins,</text>
  </g>
  <g>
    <rect x="1051" width="152" y="912" height="28" stroke-width="1.0" stroke="red" fill="none"/>
    <text x="1051" y="940" font-size="25.2" stroke="blue" font-family="serif">Chlorophyll,</text>
  </g>
  <g>
    <rect x="889" width="127" y="947" height="28" stroke-width="1.0" stroke="red" fill="none"/>
    <text x="889" y="975" font-size="25.2" stroke="blue" font-family="serif">Prenylated</text>
  </g>
  <g>
    <rect x="1024" width="103" y="946" height="28" stroke-width="1.0" stroke="red" fill="none"/>
    <text x="1024" y="974" font-size="25.2" stroke="blue" font-family="serif">proteins,</text>
  </g>
  <g>
    <rect x="1137" width="144" y="950" height="23" stroke-width="1.0" stroke="red" fill="none"/>
    <text x="1137" y="973" font-size="20.7" stroke="blue" font-family="serif">Carotenoids</text>
  </g>
  <g>
    <rect x="582" width="26" y="984" height="28" stroke-width="1.0" stroke="red" fill="none"/>
    <text x="582" y="1012" font-size="25.2" stroke="blue" font-family="serif">(+</text>
  </g>
  <g>
    <rect x="617" width="62" y="985" height="27" stroke-width="1.0" stroke="red" fill="none"/>
    <text x="617" y="1012" font-size="24.3" stroke="blue" font-family="serif">PP).</text>
  </g>
  <g>
    <rect x="508" width="154" y="1088" height="28" stroke-width="1.0" stroke="red" fill="none"/>
    <text x="508" y="1116" font-size="25.2" stroke="blue" font-family="serif">Polyterpenes</text>
  </g>
</svg>