<svg id="svg" xmlns="http://www.w3.org/2000/svg" xmlns:xlink="http://www.w3.org/1999/xlink" width="400" height="400" viewBox="0, 0, 400,400" version="1.1">
    <g id="svgg">
        <path id="path0" d="M79.995 33.741 C 67.921 36.999,54.089 52.663,49.568 68.200 C 47.311 75.955,46.428 77.163,39.563 81.894 C 32.917 86.474,24.621 94.879,15.092 106.688 C 7.811 115.710,9.303 123.355,19.691 130.260 C 25.165 133.899,28.057 134.596,37.800 134.624 C 51.510 134.662,51.471 134.613,52.007 152.400 C 52.603 172.136,54.630 178.107,64.264 188.510 C 71.712 196.553,71.540 199.085,62.933 208.054 C 52.699 218.718,51.813 221.075,52.086 236.906 C 52.234 245.500,52.316 246.380,53.184 248.588 C 56.453 256.903,66.847 259.115,72.620 252.725 C 75.622 249.402,76.141 247.453,76.760 237.160 C 77.164 230.439,77.997 228.294,81.556 224.812 C 87.994 218.512,92.584 220.311,96.985 230.860 C 101.487 241.648,102.479 243.804,104.821 247.887 C 114.452 264.673,128.359 278.455,146.666 289.355 C 159.100 296.759,159.606 297.841,159.590 316.973 C 159.573 337.866,162.528 336.124,126.600 336.424 C 106.179 336.595,99.419 336.773,98.200 337.170 C 80.898 342.803,82.065 364.835,99.866 368.607 C 103.858 369.453,174.470 369.468,178.452 368.624 C 189.292 366.326,192.234 360.948,192.797 342.400 C 193.410 322.178,195.400 321.121,202.208 337.400 C 210.192 356.493,221.318 365.987,238.798 368.622 C 244.409 369.468,373.262 369.470,377.252 368.624 C 394.900 364.883,395.843 342.867,378.600 337.161 C 377.316 336.736,365.584 336.584,319.200 336.393 L 261.400 336.155 258.045 335.270 C 248.597 332.780,241.795 326.061,239.346 316.800 C 238.723 314.443,238.634 309.835,238.391 267.400 C 238.159 226.812,238.036 219.989,237.458 216.000 C 228.898 156.890,193.836 124.941,133.197 120.996 C 113.144 119.692,105.596 115.552,100.669 103.155 C 96.843 93.525,97.422 89.672,103.866 81.878 C 112.754 71.129,116.086 62.976,116.160 51.800 C 116.235 40.550,112.924 37.655,103.570 40.789 C 93.044 44.315,83.805 51.529,77.426 61.200 C 75.903 63.510,74.018 66.372,73.237 67.561 C 70.828 71.231,67.737 72.314,65.990 70.100 C 63.154 66.507,70.553 54.022,80.901 44.939 C 86.302 40.198,87.534 38.048,86.345 35.438 C 85.463 33.502,83.160 32.887,79.995 33.741 " stroke="none" fill="#853e0f" fill-rule="evenodd"></path>
        <path id="path1" d="M0.000 200.000 L 0.000 400.000 200.000 400.000 L 400.000 400.000 400.000 200.000 L 400.000 0.000 200.000 0.000 L 0.000 0.000 0.000 200.000 M84.584 33.819 C 88.548 35.700,87.369 39.262,80.901 44.939 C 70.553 54.022,63.154 66.507,65.990 70.100 C 67.737 72.314,70.828 71.231,73.237 67.561 C 74.018 66.372,75.903 63.510,77.426 61.200 C 83.805 51.529,93.044 44.315,103.570 40.789 C 112.924 37.655,116.235 40.550,116.160 51.800 C 116.086 62.976,112.754 71.129,103.866 81.878 C 97.422 89.672,96.843 93.525,100.669 103.155 C 105.596 115.552,113.144 119.692,133.197 120.996 C 193.836 124.941,228.898 156.890,237.458 216.000 C 238.036 219.989,238.159 226.812,238.391 267.400 C 238.634 309.835,238.723 314.443,239.346 316.800 C 241.795 326.061,248.597 332.780,258.045 335.270 L 261.400 336.155 319.200 336.393 C 365.584 336.584,377.316 336.736,378.600 337.161 C 395.843 342.867,394.900 364.883,377.252 368.624 C 373.262 369.470,244.409 369.468,238.798 368.622 C 221.318 365.987,210.192 356.493,202.208 337.400 C 195.400 321.121,193.410 322.178,192.797 342.400 C 192.234 360.948,189.292 366.326,178.452 368.624 C 174.470 369.468,103.858 369.453,99.866 368.607 C 82.065 364.835,80.898 342.803,98.200 337.170 C 99.419 336.773,106.179 336.595,126.600 336.424 C 162.528 336.124,159.573 337.866,159.590 316.973 C 159.606 297.841,159.100 296.759,146.666 289.355 C 128.359 278.455,114.452 264.673,104.821 247.887 C 102.479 243.804,101.487 241.648,96.985 230.860 C 92.584 220.311,87.994 218.512,81.556 224.812 C 77.997 228.294,77.164 230.439,76.760 237.160 C 76.141 247.453,75.622 249.402,72.620 252.725 C 66.847 259.115,56.453 256.903,53.184 248.588 C 52.316 246.380,52.234 245.500,52.086 236.906 C 51.813 221.075,52.699 218.718,62.933 208.054 C 71.540 199.085,71.712 196.553,64.264 188.510 C 54.630 178.107,52.603 172.136,52.007 152.400 C 51.471 134.613,51.510 134.662,37.800 134.624 C 28.057 134.596,25.165 133.899,19.691 130.260 C 9.303 123.355,7.811 115.710,15.092 106.688 C 24.621 94.879,32.917 86.474,39.563 81.894 C 46.428 77.163,47.311 75.955,49.568 68.200 C 53.546 54.530,63.206 42.276,74.995 35.944 C 79.854 33.334,82.381 32.774,84.584 33.819 " stroke="none" fill="#ffffff" fill-rule="evenodd"></path>
    </g>
</svg>